<svg xmlns="http://www.w3.org/2000/svg" width="1440" height="900" viewBox="0 0 1440 900">
<rect width="1440" height="900" fill="#F5F7FA"/>
<text x="80" y="90" font-family="Arial,sans-serif" font-size="42" font-weight="700" fill="#111827">UI Kit</text>
<text x="80" y="132" font-family="Arial,sans-serif" font-size="20" fill="#667085">Buttons, fields, cards, status chips and spacing tokens</text>
<rect x="80" y="190" width="390" height="210" rx="20" fill="#FFFFFF" stroke="#D0D5DD"/>
<text x="108" y="235" font-family="Arial" font-size="22" font-weight="700" fill="#101828">Buttons</text>
<text x="108" y="270" font-family="Arial" font-size="16" fill="#475467">Primary / Secondary / Ghost</text><rect x="525" y="190" width="390" height="210" rx="20" fill="#FFFFFF" stroke="#D0D5DD"/>
<text x="553" y="235" font-family="Arial" font-size="22" font-weight="700" fill="#101828">Fields</text>
<text x="553" y="270" font-family="Arial" font-size="16" fill="#475467">Default / Focus / Error</text><rect x="970" y="190" width="390" height="210" rx="20" fill="#FFFFFF" stroke="#D0D5DD"/>
<text x="998" y="235" font-family="Arial" font-size="22" font-weight="700" fill="#101828">Status</text>
<text x="998" y="270" font-family="Arial" font-size="16" fill="#475467">Success / Warning / Error</text><rect x="100" y="505" width="260" height="68" rx="12" fill="#2563EB"/><text x="172" y="547" font-family="Arial" font-size="19" fill="#fff">Primary</text><rect x="390" y="505" width="260" height="68" rx="12" fill="#fff" stroke="#98A2B3"/><text x="458" y="547" font-family="Arial" font-size="19" fill="#344054">Secondary</text><rect x="100" y="635" width="520" height="72" rx="12" fill="#fff" stroke="#98A2B3"/><text x="130" y="680" font-family="Arial" font-size="18" fill="#667085">Email</text><rect x="730" y="515" width="160" height="42" rx="21" fill="#ECFDF3"/><text x="770" y="542" font-family="Arial" font-size="16" fill="#027A48">Success</text><rect x="910" y="515" width="160" height="42" rx="21" fill="#FFF4E5"/><text x="950" y="542" font-family="Arial" font-size="16" fill="#B54708">Warning</text>
</svg>