<svg xmlns="http://www.w3.org/2000/svg" width="1200" height="520" viewBox="0 0 1200 520"><rect width="1200" height="520" fill="#FAFBFA"/><text x="70" y="75" font-family="Arial" font-size="30" font-weight="700" fill="#111713">Icon set · 24 px grid · 2 px stroke</text><g transform="translate(90 150) scale(4)" fill="none" stroke="#173B2E" stroke-width="2" stroke-linecap="round" stroke-linejoin="round"><circle cx="12" cy="12" r="9"/><path d="M12 7v5l3 2"/></g><g transform="translate(330 150) scale(4)" fill="none" stroke="#173B2E" stroke-width="2" stroke-linecap="round" stroke-linejoin="round"><path d="M4 12h16M7 8v8M17 8v8M2 10v4M22 10v4"/></g><g transform="translate(570 150) scale(4)" fill="none" stroke="#173B2E" stroke-width="2" stroke-linecap="round" stroke-linejoin="round"><path d="M12 21s-7-4.4-7-10a4 4 0 017-2.7A4 4 0 0119 11c0 5.6-7 10-7 10z"/></g><g transform="translate(810 150) scale(4)" fill="none" stroke="#173B2E" stroke-width="2" stroke-linecap="round" stroke-linejoin="round"><path d="M4 19V9l8-5 8 5v10zM9 19v-6h6v6"/></g><g font-family="Arial" font-size="18" fill="#526059"><text x="95" y="385">duration</text><text x="335" y="385">strength</text><text x="575" y="385">health</text><text x="815" y="385">home</text></g></svg>